# xmcd CD database file
#
# Track frame offsets:
#	183
#	13138
#	29400
#	45230
#	64683
#	83640
#	96835
#	112280
#	129815
#	141798
#	158788
#	178135
#	194328
#	210363
#	224243
#	242908
#
# Disc length: 3426 seconds
#
# Revision: 0
# Processed by: cddbd v1.4PL0 Copyright (c) Steve Scherf et al.
# Submitted via: CDex 1.40Release
#
DISCID=e40d6010
DTITLE=Kenny Rogers - Country Classics
DYEAR=1991
DGENRE=Country
TTITLE0=Ruby, don`t take your love to town
TTITLE1=Lucille
TTITLE2=The gambler
TTITLE3=Coward of the county
TTITLE4=She believes in me
TTITLE5=Together again
TTITLE6=Let it be me
TTITLE7=Lady
TTITLE8=Blaze of glory
TTITLE9=Desperado
TTITLE10=Abraham, Martin and John/Precious memories
TTITLE11=Green Green grass of home
TTITLE12=Just the way you are
TTITLE13=All i ever need is you
TTITLE14=You`ve lost that lovin feelin
TTITLE15=Son of hickory hollers tramp
EXTD=YEAR: 1991 ID3G: 2
EXTT0=
EXTT1=
EXTT2=
EXTT3=
EXTT4=
EXTT5=
EXTT6=
EXTT7=
EXTT8=
EXTT9=
EXTT10=
EXTT11=
EXTT12=
EXTT13=
EXTT14=
EXTT15=
PLAYORDER=
